<?xml version="1.0" encoding="iso-8859-1"?>
<!-- Generator: Adobe Illustrator 18.1.1, SVG Export Plug-In . SVG Version: 6.00 Build 0)  -->
<svg version="1.1" id="Capa_1" xmlns="http://www.w3.org/2000/svg" xmlns:xlink="http://www.w3.org/1999/xlink" x="0px" y="0px"
	 viewBox="0 0 29.834 29.834" fills="#ffffff" style="enable-background:new 0 0 29.834 29.834;" xml:space="preserve">
<g>
	<g id="c45_book">
		<path d="M27.169,27.637V1c0-0.798-1-1-1-1H5.659C2.663,0,2.663,3.197,2.663,3.197V28.77c0,0.586,0.475,1.064,1.066,1.064h19.178
			c0.588,0,1.064-0.479,1.064-1.064l2.131-0.003C27.247,28.767,27.169,27.637,27.169,27.637z M6.921,28.014h-1.84V4.719h1.84V28.014
			z M22.483,10.705H12.309V5.227h10.174V10.705z M23.972,19.496V4.308c0-0.589-0.477-1.065-1.064-1.065L4.759,3.234
			c0-0.732,1.102-1.104,1.102-1.104h18.111c1.133,0,1.1,0.998,1.1,0.998v23.98c0,0-0.189,0.693-1.1,0.693V19.496"/>
	</g>
	<g id="Capa_1_132_">
	</g>
</g>
<g>
</g>
<g>
</g>
<g>
</g>
<g>
</g>
<g>
</g>
<g>
</g>
<g>
</g>
<g>
</g>
<g>
</g>
<g>
</g>
<g>
</g>
<g>
</g>
<g>
</g>
<g>
</g>
<g>
</g>
</svg>
